# xmcd
#
# Track frame offsets:
#	150
#	17319
#	31937
#	47096
#	60591
#	74929
#	90768
#	108572
#	124348
#	138841
#	155407
#	170811
#
# Disc length: 2520 seconds
#
# Revision: 0
# Processed by: cddbd v1.5.2PL0 Copyright (c) Steve Scherf et al.
# Submitted via: audiograbber 1.83.01
#
DISCID=9e09d60c
DTITLE=Kelsea Ballerini - Unapologetically
DYEAR=2017
DGENRE=Country
TTITLE0=Graveyard
TTITLE1=Miss Me More
TTITLE2=Get over Yourself
TTITLE3=Roses
TTITLE4=Machine Heart
TTITLE5=In Between
TTITLE6=High School
TTITLE7=End of the World
TTITLE8=I Hate Love Songs
TTITLE9=Unapologetically
TTITLE10=Music
TTITLE11=Legends
EXTD=
EXTT0=
EXTT1=
EXTT2=
EXTT3=
EXTT4=
EXTT5=
EXTT6=
EXTT7=
EXTT8=
EXTT9=
EXTT10=
EXTT11=
PLAYORDER=
